<?xml version="1.0" standalone="no"?>
<!DOCTYPE svg PUBLIC "-//W3C//DTD SVG 20010904//EN"
 "http://www.w3.org/TR/2001/REC-SVG-20010904/DTD/svg10.dtd">
<svg version="1.0" xmlns="http://www.w3.org/2000/svg"
 width="1024.000000pt" height="1024.000000pt" viewBox="0 0 1024.000000 1024.000000"
 preserveAspectRatio="xMidYMid meet">

<g transform="translate(0.000000,1024.000000) scale(0.100000,-0.100000)"
fill="#003932" stroke="none">
<path d="M4990 8384 c-117 -9 -368 -46 -506 -75 -159 -33 -443 -122 -599 -189
-242 -103 -553 -274 -745 -410 -586 -416 -1035 -1060 -1225 -1761 -188 -694
-157 -1453 87 -2104 145 -389 401 -787 723 -1123 427 -446 1058 -806 1685
-961 393 -97 848 -124 1270 -76 1131 129 2145 832 2624 1820 408 839 466 1774
164 2635 -76 217 -157 393 -261 565 -271 450 -564 773 -949 1046 -375 267
-868 482 -1297 569 -242 49 -366 61 -646 64 -148 2 -295 2 -325 0z m655 -364
c546 -84 999 -284 1373 -605 372 -320 632 -735 733 -1173 14 -57 22 -140 26
-244 8 -221 -12 -344 -96 -591 -42 -123 -118 -306 -134 -322 -7 -7 -7 -3 -2
10 14 34 18 493 6 605 -58 530 -323 1030 -729 1371 -193 163 -462 321 -732
431 -469 192 -795 307 -981 348 -254 55 -343 64 -617 65 -285 0 -286 1 -27 54
302 63 485 80 800 76 183 -2 273 -8 380 -25z m-805 -445 c110 -17 160 -34 104
-35 -55 0 -297 -47 -434 -84 -556 -150 -1030 -379 -1450 -699 -58 -44 -125
-98 -150 -120 -91 -80 -283 -274 -353 -356 -40 -47 -91 -105 -115 -130 -23
-26 -77 -96 -120 -158 -42 -61 -78 -110 -79 -109 -7 7 143 379 195 484 69 140
146 269 175 295 10 9 16 17 13 17 -4 0 -2 6 4 13 6 6 27 35 48 62 20 28 45 57
54 66 10 9 18 22 18 28 0 7 5 9 10 6 6 -3 10 -1 10 5 0 16 163 183 245 250
282 231 694 409 1102 475 123 20 576 14 723 -10z m843 -360 c301 -35 593 -146
832 -315 88 -62 325 -290 325 -312 0 -7 -12 0 -27 15 -84 79 -354 204 -555
256 -212 55 -317 66 -603 66 -276 -1 -357 -9 -610 -62 -653 -136 -1253 -427
-1730 -839 -240 -206 -515 -514 -671 -750 -207 -314 -380 -751 -401 -1016 -3
-43 -9 -78 -12 -78 -9 0 -49 190 -61 290 -59 496 160 1048 629 1583 339 385
803 709 1311 915 320 129 746 231 1070 255 128 10 389 5 503 -8z m207 -616
c513 -48 992 -358 1270 -824 22 -36 15 -31 -65 42 -125 114 -216 180 -386 282
-440 263 -918 391 -1459 391 -145 0 -304 -11 -365 -25 -11 -3 -5 2 13 10 101
47 405 108 617 124 161 12 246 12 375 0z m2295 -659 c51 -173 67 -275 66 -440
-1 -255 -62 -498 -196 -785 -271 -579 -728 -1075 -1321 -1433 -544 -328 -1130
-489 -1645 -454 -324 22 -558 82 -802 203 -109 54 -301 174 -367 229 l-25 21
40 -19 c319 -155 873 -204 1375 -121 688 114 1457 519 1969 1038 130 132 284
310 364 423 26 37 52 68 56 70 18 7 137 210 207 353 62 127 116 270 162 425
l10 35 1 -47 c1 -26 6 -48 13 -50 6 -2 15 -37 19 -79 4 -41 5 -6 1 76 -4 83
-7 294 -7 471 l0 321 23 -61 c13 -34 38 -113 57 -176z m-3379 160 c-160 -62
-292 -147 -402 -255 -154 -153 -264 -354 -310 -570 -25 -115 -30 -334 -10
-456 62 -373 304 -707 619 -855 47 -21 62 -31 42 -29 -16 3 -66 10 -110 15
-371 50 -754 226 -1110 509 -201 159 -471 427 -575 568 l-29 40 142 139 c155
153 202 193 352 306 390 292 811 482 1300 587 120 26 156 26 91 1z m980 -10
c227 -46 394 -108 657 -242 337 -172 648 -414 928 -722 l117 -129 -47 -68
c-155 -225 -450 -541 -671 -720 -493 -401 -1061 -665 -1627 -756 -155 -25
-607 -25 -743 0 -331 62 -649 238 -903 501 -82 85 -215 254 -243 309 -14 27
-6 22 47 -30 356 -348 888 -595 1333 -619 212 -12 429 25 651 111 176 68 474
216 589 292 275 182 457 465 522 808 22 119 15 341 -16 465 -58 241 -195 469
-368 614 -86 73 -203 146 -288 181 -72 30 -64 31 62 5z m-849 -311 c78 -29
163 -114 188 -188 24 -72 17 -180 -15 -245 -30 -59 -106 -131 -168 -159 -71
-32 -169 -29 -250 8 -195 87 -248 336 -105 495 92 103 223 136 350 89z m3306
-1514 c-84 -308 -188 -551 -351 -825 -256 -431 -659 -741 -1147 -882 -243 -70
-439 -94 -700 -85 -158 6 -337 25 -350 39 -3 2 41 13 97 22 130 23 369 92 518
149 143 56 333 141 368 165 15 11 88 54 162 97 155 90 331 206 457 302 374
284 708 654 908 1006 33 58 61 104 62 104 1 -1 -10 -42 -24 -92z m-5592 -330
c68 -360 233 -756 456 -1095 9 -14 -34 25 -96 85 -116 113 -225 248 -280 346
-43 77 -115 302 -138 429 -20 117 -26 446 -9 555 l9 60 14 -110 c8 -60 28
-182 44 -270z m424 -144 c63 -122 201 -329 308 -462 190 -236 460 -451 772
-615 302 -159 944 -412 1230 -484 211 -53 354 -72 620 -79 l230 -6 -150 -37
c-250 -63 -379 -83 -615 -99 -513 -33 -1032 78 -1391 296 -288 175 -514 401
-697 695 -161 258 -310 604 -376 873 -32 129 -32 138 -2 67 13 -31 45 -98 71
-149z"/>
<path d="M8122 5190 c0 -19 2 -27 5 -17 2 9 2 25 0 35 -3 9 -5 1 -5 -18z"/>
</g>
</svg>
